<svg xmlns="http://www.w3.org/2000/svg" viewBox="0 0 1200 630" fill="none">
  <rect width="1200" height="630" fill="#050508"/>
  <rect width="1200" height="630" fill="url(#grid)" opacity="0.08"/>
  <circle cx="200" cy="150" r="300" fill="#4a9eff" opacity="0.04" filter="blur(80px)"/>
  <circle cx="900" cy="400" r="250" fill="#8b5cf6" opacity="0.03" filter="blur(80px)"/>
  <g transform="translate(80, 140) scale(0.65)" stroke="#e8e8e8" fill="none" stroke-linecap="round" stroke-linejoin="round">
    <path d="M152 390 C151 388 150 200 152 122 C152 118 154 115 156 114" stroke-width="28" opacity="0.95"/>
    <path d="M156 118 C160 112 200 104 260 106 C310 108 344 122 350 150 C356 178 344 208 310 218 C286 224 248 226 220 224 C192 222 168 218 158 216" stroke-width="24" opacity="0.92"/>
    <path d="M218 220 C230 240 270 290 310 340 C330 365 348 382 360 396" stroke-width="22" opacity="0.9"/>
  </g>
  <text x="400" y="280" font-family="system-ui, sans-serif" font-size="72" font-weight="800" fill="#eeeef2" letter-spacing="-3">Rive Playground</text>
  <text x="400" y="340" font-family="system-ui, sans-serif" font-size="28" fill="#6b6b80">Inspect, Control &amp; Export Rive Animations</text>
  <g transform="translate(400, 390)">
    <rect width="90" height="28" rx="14" stroke="#3b82f6" stroke-width="1.5" fill="none"/>
    <text x="14" y="19" font-family="monospace" font-size="11" font-weight="600" fill="#3b82f6">boolean</text>
    <rect x="100" width="82" height="28" rx="14" stroke="#8b5cf6" stroke-width="1.5" fill="none"/>
    <text x="112" y="19" font-family="monospace" font-size="11" font-weight="600" fill="#8b5cf6">number</text>
    <rect x="192" width="72" height="28" rx="14" stroke="#10b981" stroke-width="1.5" fill="none"/>
    <text x="206" y="19" font-family="monospace" font-size="11" font-weight="600" fill="#10b981">string</text>
    <rect x="274" width="76" height="28" rx="14" stroke="#f59e0b" stroke-width="1.5" fill="none"/>
    <text x="288" y="19" font-family="monospace" font-size="11" font-weight="600" fill="#f59e0b">trigger</text>
    <rect x="360" width="66" height="28" rx="14" stroke="#ec4899" stroke-width="1.5" fill="none"/>
    <text x="376" y="19" font-family="monospace" font-size="11" font-weight="600" fill="#ec4899">color</text>
    <rect x="436" width="74" height="28" rx="14" stroke="#f97316" stroke-width="1.5" fill="none"/>
    <text x="452" y="19" font-family="monospace" font-size="11" font-weight="600" fill="#f97316">image</text>
  </g>
  <text x="400" y="490" font-family="monospace" font-size="16" fill="#4a9eff">nano-step.github.io/rive-playground</text>
  <defs>
    <pattern id="grid" width="60" height="60" patternUnits="userSpaceOnUse">
      <path d="M60 0 V60 M0 60 H60" stroke="#1a1a2e" stroke-width="0.5"/>
    </pattern>
  </defs>
</svg>
